<?xml version="1.0" encoding="UTF-8" standalone="no"?>
<!DOCTYPE svg PUBLIC "-//W3C//DTD SVG 1.1//EN" "http://www.w3.org/Graphics/SVG/1.1/DTD/svg11.dtd">
<svg xmlns="http://www.w3.org/2000/svg" version="1.1" viewBox="0 0 1024 1024" width="1024.0pt" height="1024.0pt">
<path d="M 0.00 0.00 L 127.00 0.00 C 102.33 1.12 78.22 8.85 57.82 22.82 C 31.68 40.54 12.32 67.74 4.35 98.32 C 1.86 107.46 0.71 116.79 0.00 126.22 L 0.00 0.00 Z" fill="#ffffff" />
<path d="M 127.00 0.00 L 897.78 0.00 C 922.19 1.32 945.98 8.96 966.18 22.81 C 989.22 38.46 1007.07 61.47 1016.37 87.74 C 1021.01 100.61 1023.38 114.10 1024.00 127.74 L 1024.00 897.14 C 1022.80 922.72 1014.50 947.68 999.54 968.52 C 982.90 991.96 958.50 1009.67 931.01 1018.13 C 919.73 1021.66 908.05 1023.43 896.26 1024.00 L 126.25 1024.00 C 108.45 1022.92 90.98 1018.84 74.91 1011.02 C 48.24 998.26 26.18 976.33 13.28 949.72 C 5.09 933.07 0.77 914.81 0.00 896.30 L 0.00 126.22 C 0.71 116.79 1.86 107.46 4.35 98.32 C 12.32 67.74 31.68 40.54 57.82 22.82 C 78.22 8.85 102.33 1.12 127.00 0.00 Z" fill="#563d7c" />
<path d="M 897.78 0.00 L 1024.00 0.00 L 1024.00 127.74 C 1023.38 114.10 1021.01 100.61 1016.37 87.74 C 1007.07 61.47 989.22 38.46 966.18 22.81 C 945.98 8.96 922.19 1.32 897.78 0.00 Z" fill="#ffffff" />
<path d="M 288.30 202.12 C 386.20 202.11 484.10 202.11 582.00 202.12 C 600.07 202.03 618.12 203.12 636.04 205.52 C 654.33 208.03 672.46 211.68 689.78 218.20 C 704.43 223.71 718.72 231.26 730.94 241.08 C 751.74 257.74 766.23 281.74 772.61 307.51 C 777.43 326.90 778.74 347.30 777.70 367.21 C 776.29 391.15 770.11 414.49 756.39 434.40 C 740.73 457.12 718.51 473.19 693.89 485.05 C 700.17 487.01 706.44 488.97 712.55 491.44 C 737.47 501.25 759.77 516.48 775.92 538.05 C 796.34 565.34 805.90 598.20 807.33 632.00 C 808.13 651.05 806.87 669.92 802.41 688.50 C 795.33 718.69 778.25 746.55 755.39 767.37 C 733.20 787.27 705.19 801.32 676.72 809.69 C 647.95 817.99 617.94 822.18 588.00 821.89 C 488.10 821.88 388.20 821.90 288.30 821.88 C 288.30 615.29 288.30 408.71 288.30 202.12 Z" fill="#ffffff" />
<path d="M 424.65 307.90 C 467.43 307.91 510.22 307.89 553.00 307.90 C 564.03 308.01 575.10 308.87 585.98 310.73 C 598.17 312.77 610.00 316.77 620.31 323.71 C 628.64 329.35 635.23 337.33 639.68 346.32 C 644.93 357.21 646.28 370.06 646.03 382.00 C 645.64 395.82 643.12 409.76 635.61 421.60 C 629.62 431.20 620.77 437.79 610.80 442.81 C 596.12 450.17 579.31 453.00 563.00 452.87 C 516.88 452.88 470.76 452.88 424.64 452.87 C 424.64 404.55 424.61 356.22 424.65 307.90 Z" fill="#563d7c" />
<path d="M 424.65 545.82 C 474.77 545.83 524.88 545.82 575.00 545.83 C 593.44 546.18 611.50 548.79 628.34 556.66 C 639.68 562.09 650.07 569.23 657.23 579.77 C 667.34 594.39 670.64 612.53 671.17 629.99 C 671.51 642.42 670.50 655.41 666.19 667.16 C 660.87 681.19 650.98 693.39 637.94 700.93 C 618.97 712.44 594.81 715.55 573.00 716.07 C 523.56 716.14 474.10 716.07 424.65 716.10 C 424.62 659.34 424.62 602.58 424.65 545.82 Z" fill="#563d7c" />
<path d="M 0.00 896.30 C 0.77 914.81 5.09 933.07 13.28 949.72 C 26.18 976.33 48.24 998.26 74.91 1011.02 C 90.98 1018.84 108.45 1022.92 126.25 1024.00 L 0.00 1024.00 L 0.00 896.30 Z" fill="#ffffff" />
<path d="M 1024.00 897.14 L 1024.00 1024.00 L 896.26 1024.00 C 908.05 1023.43 919.73 1021.66 931.01 1018.13 C 958.50 1009.67 982.90 991.96 999.54 968.52 C 1014.50 947.68 1022.80 922.72 1024.00 897.14 Z" fill="#ffffff" />
</svg>