<?xml version="1.0" encoding="UTF-8" standalone="no"?>
<!DOCTYPE svg PUBLIC "-//W3C//DTD SVG 1.1//EN" "http://www.w3.org/Graphics/SVG/1.1/DTD/svg11.dtd">
<svg xmlns="http://www.w3.org/2000/svg" version="1.1" viewBox="0 0 1024 1024" width="1024.0pt" height="1024.0pt">
<path d="M 0.00 0.00 L 1024.00 0.00 L 1024.00 1024.00 L 0.00 1024.00 L 0.00 0.00 Z" fill="#ffffff" />
<path d="M 601.23 42.37 C 661.70 53.74 719.83 77.07 771.47 110.54 C 809.26 135.03 843.64 164.85 873.13 198.90 C 906.62 237.45 933.85 281.38 953.47 328.52 C 984.78 403.49 996.03 486.30 986.78 566.96 C 980.43 623.33 963.77 678.47 937.97 728.98 C 913.72 776.56 881.41 819.92 842.91 856.90 C 808.91 889.47 770.22 917.06 728.22 938.35 C 675.55 965.17 617.84 981.97 559.00 987.63 C 532.83 990.20 506.26 990.55 480.02 988.84 C 430.32 985.66 381.17 974.54 334.92 956.07 C 282.27 935.08 233.48 904.58 191.47 866.55 C 153.66 832.39 121.35 792.11 96.18 747.81 C 65.09 693.19 45.01 632.38 37.55 569.97 C 31.71 521.05 33.25 471.19 42.38 422.77 C 53.74 362.29 77.07 304.17 110.54 252.53 C 135.03 214.74 164.85 180.36 198.90 150.87 C 246.64 109.40 302.64 77.51 362.75 57.82 C 439.15 32.62 522.21 27.53 601.23 42.37 Z" fill="#663399" />
<path d="M 572.97 141.34 C 625.16 149.72 675.38 169.38 719.44 198.57 C 756.62 223.14 789.41 254.28 815.88 290.14 C 798.82 305.00 781.70 319.81 764.58 334.60 C 735.58 295.45 697.97 262.84 654.78 240.23 C 619.47 221.70 580.66 209.98 540.94 206.27 C 484.25 200.75 426.11 211.53 375.26 237.26 C 304.69 272.62 249.13 335.59 222.03 409.65 C 352.81 540.41 483.59 671.17 614.34 801.96 C 663.59 785.31 708.31 754.54 742.55 715.53 C 776.41 677.07 800.63 630.27 812.27 580.36 C 757.67 580.34 703.07 580.37 648.46 580.35 C 648.42 557.57 648.46 534.80 648.44 512.02 C 728.14 511.97 807.86 512.01 887.56 512.01 C 887.53 534.40 885.53 556.77 881.47 578.80 C 871.71 632.46 849.78 683.69 818.07 728.03 C 799.67 753.84 777.96 777.30 753.74 797.74 C 707.81 836.55 652.62 864.21 593.91 877.30 C 531.66 815.18 469.49 752.90 407.28 690.73 C 320.44 603.85 233.48 516.99 146.69 430.09 C 161.84 362.14 196.53 298.94 245.32 249.32 C 281.12 212.65 324.50 183.35 371.96 163.97 C 435.24 137.92 505.48 130.33 572.97 141.34 Z" fill="#ffffff" />
<path d="M 136.49 518.65 C 137.33 519.47 138.17 520.29 139.01 521.12 C 262.12 643.22 385.65 765.43 508.73 887.54 C 442.35 885.21 376.16 867.96 318.63 834.39 C 281.35 812.80 248.24 784.34 220.97 751.02 C 167.59 686.14 136.38 602.85 136.49 518.65 Z" fill="#ffffff" />
</svg>