<?xml version="1.0" encoding="UTF-8" standalone="no"?>
<!DOCTYPE svg PUBLIC "-//W3C//DTD SVG 1.1//EN" "http://www.w3.org/Graphics/SVG/1.1/DTD/svg11.dtd">
<svg xmlns="http://www.w3.org/2000/svg" version="1.1" viewBox="0 0 344 390" width="344.0pt" height="390.0pt">
<path d="M 0.00 0.00 L 343.55 0.00 C 333.19 116.54 322.81 233.07 312.39 349.60 C 266.39 362.55 220.37 375.47 174.36 388.40 C 171.85 389.22 169.61 388.57 167.18 387.88 C 122.08 375.04 76.84 362.42 31.77 349.54 C 22.02 238.55 11.90 127.41 2.18 16.43 C 2.05 12.16 1.93 8.10 0.75 3.96 C 0.49 3.01 0.24 2.05 0.00 1.09 L 0.00 0.00 Z" fill="#d6ba32" />
<path d="M 343.55 0.00 L 344.00 0.00 L 344.00 390.00 L 0.00 390.00 L 0.00 9.49 C 0.70 11.81 1.50 14.10 2.18 16.43 C 11.90 127.41 22.02 238.55 31.77 349.54 C 76.84 362.42 122.08 375.04 167.18 387.88 C 169.61 388.57 171.85 389.22 174.36 388.40 C 220.37 375.47 266.39 362.55 312.39 349.60 C 322.81 233.07 333.19 116.54 343.55 0.00 Z" fill="#ffffff" />
<path d="M 0.00 1.09 C 0.24 2.05 0.49 3.01 0.75 3.96 C 1.93 8.10 2.05 12.16 2.18 16.43 C 1.50 14.10 0.70 11.81 0.00 9.49 L 0.00 1.09 Z" fill="#f1e8bb" />
<path d="M 172.45 30.83 C 175.97 30.69 179.48 30.63 183.00 30.66 C 226.11 30.77 269.24 30.56 312.34 30.76 C 303.59 130.49 294.70 230.28 285.77 330.00 C 278.67 332.38 271.34 334.08 264.14 336.14 C 239.83 342.83 215.52 349.52 191.21 356.20 C 184.94 357.84 178.82 359.86 172.46 361.17 C 172.37 251.08 172.39 140.92 172.45 30.83 Z" fill="#ffda3e" />
<path d="M 125.29 75.42 C 136.29 75.15 147.35 75.42 158.37 75.32 C 158.39 151.61 158.40 227.92 158.37 304.22 C 125.14 294.92 91.87 285.75 58.65 276.40 C 58.68 263.02 58.65 249.63 58.67 236.25 C 80.84 242.42 102.99 248.64 125.18 254.74 C 125.18 198.16 125.18 141.58 125.18 85.00 C 125.19 81.82 125.02 78.59 125.29 75.42 Z" fill="#ebebeb" />
<path d="M 185.81 75.36 C 222.18 75.28 258.56 75.36 294.93 75.32 C 294.16 88.76 292.78 102.18 291.55 115.59 C 267.44 115.57 243.33 115.58 219.22 115.58 C 219.23 135.97 219.24 156.37 219.21 176.76 C 241.93 173.96 264.65 171.17 287.36 168.36 C 284.23 205.50 281.61 242.71 278.51 279.86 C 247.61 287.87 216.75 296.13 185.82 304.03 C 185.81 290.67 185.82 277.31 185.82 263.95 C 207.98 258.04 230.16 252.20 252.31 246.29 C 252.68 234.85 253.59 223.46 253.83 212.02 C 231.13 215.73 208.54 220.33 185.82 223.92 C 185.81 174.40 185.83 124.88 185.81 75.36 Z" fill="#ffffff" />
</svg>