<?xml version="1.0" encoding="UTF-8" standalone="no"?>
<!DOCTYPE svg PUBLIC "-//W3C//DTD SVG 1.1//EN" "http://www.w3.org/Graphics/SVG/1.1/DTD/svg11.dtd">
<svg xmlns="http://www.w3.org/2000/svg" version="1.1" viewBox="0 0 1081 970" width="1081.0pt" height="970.0pt">
<path d="M 0.00 0.00 L 1081.00 0.00 L 1081.00 970.00 L 0.00 970.00 L 0.00 0.00 Z" fill="#ffffff" />
<path d="M 732.00 61.27 C 750.64 60.66 769.07 64.71 784.51 75.50 C 801.65 87.42 812.90 105.56 820.19 124.80 C 829.89 150.63 833.20 179.55 833.42 207.00 C 833.69 246.94 827.48 287.56 818.15 326.34 C 843.07 333.56 867.52 342.08 891.23 352.64 C 918.17 364.64 944.91 379.51 967.81 398.20 C 985.08 412.36 1001.38 429.78 1010.70 450.29 C 1017.45 464.97 1020.19 481.27 1017.34 497.26 C 1014.26 515.34 1005.18 531.63 993.75 545.74 C 978.62 564.35 958.86 579.88 938.69 592.69 C 902.43 615.61 861.16 632.17 820.18 644.48 C 828.98 679.86 834.52 716.52 835.09 753.00 C 835.38 782.77 832.43 814.07 822.23 842.22 C 814.89 862.31 803.55 881.24 785.94 893.92 C 770.19 905.27 751.19 909.52 732.00 909.06 C 704.10 908.14 676.17 898.05 651.48 885.51 C 611.64 865.14 575.37 836.15 543.15 805.29 C 527.70 820.24 511.37 834.27 494.18 847.20 C 469.16 865.99 441.61 882.96 412.51 894.62 C 391.67 902.92 368.55 909.03 346.00 908.68 C 327.80 908.42 309.94 903.74 295.17 892.81 C 279.04 881.01 268.14 863.25 261.27 844.74 C 253.13 822.71 249.91 799.37 248.90 776.00 C 247.40 732.81 254.23 688.46 264.62 646.61 C 236.54 638.53 208.82 628.26 182.54 615.46 C 157.95 603.47 133.81 588.81 113.07 570.90 C 96.10 556.17 80.42 538.35 71.50 517.52 C 65.33 503.19 62.79 487.50 65.37 472.03 C 68.31 453.41 77.99 436.29 89.97 421.98 C 104.30 404.84 122.64 390.41 141.43 378.44 C 179.66 354.29 221.77 338.27 265.04 325.74 C 263.24 317.12 261.01 308.59 259.32 299.94 C 251.51 261.75 246.92 221.73 249.77 182.77 C 251.48 160.05 255.89 136.26 265.44 115.45 C 272.82 99.46 283.39 84.99 298.32 75.31 C 314.02 65.08 332.47 61.52 351.00 62.22 C 378.03 63.28 405.15 72.90 429.27 84.73 C 470.58 105.22 508.49 134.78 541.86 166.42 C 575.55 134.15 613.90 103.59 655.87 82.88 C 679.19 71.43 705.86 62.07 732.00 61.27 Z" fill="#53c1de" />
<path d="M 735.00 101.78 C 744.79 101.88 754.34 103.69 762.31 109.69 C 771.80 116.88 777.86 127.91 782.06 138.83 C 788.50 155.89 791.17 174.88 792.23 193.00 C 794.23 234.16 788.38 276.11 778.63 316.05 C 777.00 315.74 775.38 315.42 773.77 315.06 C 733.27 305.92 692.34 300.03 651.05 295.97 C 626.24 260.83 599.73 227.07 570.47 195.52 C 596.88 170.00 626.09 146.33 657.94 127.93 C 672.73 119.46 688.56 111.87 704.89 106.90 C 714.62 103.98 724.82 101.93 735.00 101.78 Z" fill="#ffffff" />
<path d="M 342.00 102.90 C 355.87 101.99 370.41 105.26 383.52 109.63 C 404.09 116.58 423.87 127.17 442.13 138.86 C 467.76 155.32 491.04 174.46 513.18 195.33 C 510.96 198.37 508.19 200.86 505.74 203.73 C 479.23 232.95 454.91 263.86 432.00 295.97 C 389.19 300.04 346.69 306.28 304.72 315.72 C 296.36 282.36 290.75 248.44 289.78 214.00 C 289.34 192.76 290.66 170.67 296.13 150.06 C 299.58 137.27 305.25 123.28 314.94 113.92 C 322.26 106.69 331.91 103.57 342.00 102.90 Z" fill="#ffffff" />
<path d="M 541.87 224.70 C 561.81 246.13 580.38 268.89 597.96 292.28 C 560.41 290.57 522.84 290.54 485.29 292.27 C 503.06 268.88 521.80 246.15 541.87 224.70 Z" fill="#ffffff" />
<path d="M 628.28 334.89 C 629.53 336.59 630.75 338.32 631.91 340.09 C 662.91 386.42 690.77 434.86 715.55 484.79 C 690.09 536.92 660.96 587.39 628.73 635.62 C 573.61 639.55 518.16 639.59 463.00 636.45 C 460.40 636.27 457.70 636.35 455.14 635.83 C 453.84 634.47 452.84 632.77 451.79 631.21 C 420.29 584.70 392.07 535.91 367.72 485.28 C 392.88 433.09 421.84 382.62 454.68 334.87 C 464.13 334.36 473.55 333.54 483.00 333.18 C 531.42 330.60 579.93 331.42 628.28 334.89 Z" fill="#ffffff" />
<path d="M 402.16 340.19 C 381.96 371.72 363.28 404.14 346.03 437.37 C 334.60 410.43 324.46 382.95 315.72 355.02 C 344.25 348.61 373.15 343.78 402.16 340.19 Z" fill="#ffffff" />
<path d="M 680.73 340.26 C 709.92 343.92 739.00 348.82 767.67 355.45 C 758.92 383.26 748.65 410.60 737.14 437.38 C 719.57 404.30 700.86 371.85 680.73 340.26 Z" fill="#ffffff" />
<path d="M 276.12 365.07 C 288.92 406.13 304.65 446.20 322.62 485.27 C 304.47 525.01 288.47 565.67 275.47 607.40 C 253.02 600.86 231.00 592.98 209.72 583.28 C 189.41 573.98 169.38 562.93 151.47 549.54 C 139.49 540.53 127.88 530.15 118.84 518.14 C 112.91 510.18 107.70 501.09 105.81 491.25 C 104.40 484.03 105.31 476.65 107.93 469.82 C 112.42 457.81 121.18 447.14 130.28 438.28 C 147.42 421.75 168.66 408.58 189.80 397.82 C 217.31 383.96 246.46 373.30 276.12 365.07 Z" fill="#ffffff" />
<path d="M 807.19 365.58 C 834.06 373.31 860.72 382.92 885.92 395.07 C 903.78 403.72 921.33 413.79 937.14 425.83 C 948.78 434.75 960.26 445.32 968.39 457.61 C 973.85 465.98 978.20 475.84 977.65 486.02 C 977.19 496.30 972.30 506.19 966.49 514.49 C 957.71 526.93 945.85 537.61 933.72 546.73 C 911.01 563.66 884.92 576.99 858.79 587.80 C 842.53 594.44 825.94 600.30 809.08 605.24 C 796.12 564.49 779.87 525.01 761.62 486.36 C 760.67 484.67 761.21 483.56 761.92 481.94 C 779.36 444.19 794.86 405.31 807.19 365.58 Z" fill="#ffffff" />
<path d="M 531.52 399.82 C 550.66 397.58 570.42 401.94 586.72 412.27 C 603.38 422.73 616.25 439.02 622.35 457.75 C 630.55 482.45 626.70 510.50 611.99 531.99 C 602.39 546.16 588.50 557.31 572.56 563.55 C 555.25 570.37 535.76 571.24 517.89 566.13 C 491.51 558.68 469.65 537.98 460.84 512.02 C 455.05 495.28 454.70 476.69 459.84 459.75 C 464.62 443.86 474.17 429.49 486.95 418.92 C 499.54 408.39 515.21 401.70 531.52 399.82 Z" fill="#53c1de" />
<path d="M 737.48 531.91 C 749.73 559.11 760.35 587.14 769.57 615.51 C 740.25 622.22 710.50 627.12 680.63 630.65 C 700.87 598.49 719.87 565.58 737.48 531.91 Z" fill="#ffffff" />
<path d="M 346.08 533.26 C 363.58 566.85 382.55 599.52 403.01 631.39 C 373.54 628.10 344.14 623.60 315.17 617.28 C 323.73 589.68 333.81 562.52 344.96 535.86 C 345.33 534.99 345.70 534.12 346.08 533.26 Z" fill="#ffffff" />
<path d="M 780.71 654.79 C 787.08 680.05 791.40 705.99 793.39 731.97 C 795.33 759.77 794.70 789.37 787.60 816.47 C 783.91 830.19 778.14 844.80 768.36 855.37 C 762.32 861.94 754.59 866.01 745.79 867.49 C 730.82 870.16 714.29 866.69 700.00 861.99 C 676.93 854.27 654.90 841.82 634.82 828.19 C 612.32 812.82 591.21 794.98 571.60 776.07 C 600.69 744.20 626.92 710.01 651.59 674.64 C 695.03 670.76 738.18 664.51 780.71 654.79 Z" fill="#ffffff" />
<path d="M 304.16 656.59 C 346.55 665.93 389.54 671.48 432.76 675.25 C 458.01 710.53 485.03 744.46 514.60 776.23 C 494.24 795.90 472.20 813.97 448.56 829.56 C 429.39 842.09 408.52 853.40 386.77 860.70 C 372.13 865.56 356.46 868.98 340.97 867.62 C 331.16 866.70 321.82 863.34 314.84 856.16 C 303.78 845.22 297.86 828.65 294.44 813.79 C 289.64 792.17 288.90 770.05 289.84 748.00 C 291.36 718.07 296.33 688.63 303.41 659.54 C 303.66 658.56 303.91 657.58 304.16 656.59 Z" fill="#ffffff" />
<path d="M 485.65 678.35 C 523.41 679.77 561.21 679.78 598.97 678.15 C 581.44 701.92 562.86 725.06 543.00 746.92 C 522.74 725.06 503.66 702.09 485.65 678.35 Z" fill="#ffffff" />
</svg>